<mxfile host="65bd71144e">
    <diagram id="36-wGjC7Pqpf6NmqBh_E" name="Página-1">
        <mxGraphModel dx="1216" dy="696" grid="1" gridSize="10" guides="1" tooltips="1" connect="1" arrows="1" fold="1" page="1" pageScale="1" pageWidth="827" pageHeight="1169" math="0" shadow="0">
            <root>
                <mxCell id="0"/>
                <mxCell id="1" parent="0"/>
                <mxCell id="2" value="Usuario" style="swimlane;whiteSpace=wrap;html=1;startSize=23;" vertex="1" parent="1">
                    <mxGeometry x="50" y="30" width="200" height="200" as="geometry"/>
                </mxCell>
                <mxCell id="5" value="&amp;nbsp;+&amp;nbsp; nombre_completo&amp;nbsp; &amp;nbsp;str" style="text;html=1;align=center;verticalAlign=middle;resizable=0;points=[];autosize=1;strokeColor=none;fillColor=none;" vertex="1" parent="2">
                    <mxGeometry y="30" width="160" height="30" as="geometry"/>
                </mxCell>
                <mxCell id="8" value="rut" style="text;html=1;align=center;verticalAlign=middle;resizable=0;points=[];autosize=1;strokeColor=none;fillColor=none;" vertex="1" parent="2">
                    <mxGeometry x="20" y="50" width="40" height="30" as="geometry"/>
                </mxCell>
                <mxCell id="9" value="telefono" style="text;html=1;align=center;verticalAlign=middle;resizable=0;points=[];autosize=1;strokeColor=none;fillColor=none;" vertex="1" parent="2">
                    <mxGeometry x="20" y="70" width="70" height="30" as="geometry"/>
                </mxCell>
                <mxCell id="10" value="correo_electronico" style="text;html=1;align=center;verticalAlign=middle;resizable=0;points=[];autosize=1;strokeColor=none;fillColor=none;" vertex="1" parent="2">
                    <mxGeometry x="20" y="90" width="120" height="30" as="geometry"/>
                </mxCell>
                <mxCell id="11" value="sansciones" style="text;html=1;align=center;verticalAlign=middle;resizable=0;points=[];autosize=1;strokeColor=none;fillColor=none;" vertex="1" parent="2">
                    <mxGeometry x="20" y="110" width="80" height="30" as="geometry"/>
                </mxCell>
                <mxCell id="12" value="historial:prestamo" style="text;html=1;align=center;verticalAlign=middle;resizable=0;points=[];autosize=1;strokeColor=none;fillColor=none;" vertex="1" parent="2">
                    <mxGeometry x="20" y="130" width="120" height="30" as="geometry"/>
                </mxCell>
                <mxCell id="3" value="Libro" style="swimlane;whiteSpace=wrap;html=1;" vertex="1" parent="1">
                    <mxGeometry x="620" y="30" width="196" height="200" as="geometry"/>
                </mxCell>
                <mxCell id="14" value="autor" style="text;html=1;align=center;verticalAlign=middle;resizable=0;points=[];autosize=1;strokeColor=none;fillColor=none;" vertex="1" parent="3">
                    <mxGeometry x="36" y="50" width="50" height="30" as="geometry"/>
                </mxCell>
                <mxCell id="15" value="genero" style="text;html=1;align=center;verticalAlign=middle;resizable=0;points=[];autosize=1;strokeColor=none;fillColor=none;" vertex="1" parent="3">
                    <mxGeometry x="36" y="70" width="60" height="30" as="geometry"/>
                </mxCell>
                <mxCell id="16" value="N_ejemplares" style="text;html=1;align=center;verticalAlign=middle;resizable=0;points=[];autosize=1;strokeColor=none;fillColor=none;" vertex="1" parent="3">
                    <mxGeometry x="36" y="90" width="100" height="30" as="geometry"/>
                </mxCell>
                <mxCell id="17" value="estado" style="text;html=1;align=center;verticalAlign=middle;resizable=0;points=[];autosize=1;strokeColor=none;fillColor=none;" vertex="1" parent="3">
                    <mxGeometry x="36" y="120" width="60" height="30" as="geometry"/>
                </mxCell>
                <mxCell id="13" value="titulo" style="text;html=1;align=center;verticalAlign=middle;resizable=0;points=[];autosize=1;strokeColor=none;fillColor=none;" vertex="1" parent="3">
                    <mxGeometry x="41" y="30" width="50" height="30" as="geometry"/>
                </mxCell>
                <mxCell id="4" value="Prestamo" style="swimlane;whiteSpace=wrap;html=1;" vertex="1" parent="1">
                    <mxGeometry x="350" y="30" width="200" height="200" as="geometry"/>
                </mxCell>
                <mxCell id="18" value="usuario" style="text;html=1;align=center;verticalAlign=middle;resizable=0;points=[];autosize=1;strokeColor=none;fillColor=none;" vertex="1" parent="4">
                    <mxGeometry x="20" y="30" width="60" height="30" as="geometry"/>
                </mxCell>
                <mxCell id="19" value="fecha_prestamo" style="text;html=1;align=center;verticalAlign=middle;resizable=0;points=[];autosize=1;strokeColor=none;fillColor=none;" vertex="1" parent="4">
                    <mxGeometry x="20" y="50" width="110" height="30" as="geometry"/>
                </mxCell>
                <mxCell id="20" value="fecha_devolución" style="text;html=1;align=center;verticalAlign=middle;resizable=0;points=[];autosize=1;strokeColor=none;fillColor=none;" vertex="1" parent="4">
                    <mxGeometry x="15" y="70" width="120" height="30" as="geometry"/>
                </mxCell>
                <mxCell id="21" value="libro" style="text;html=1;align=center;verticalAlign=middle;resizable=0;points=[];autosize=1;strokeColor=none;fillColor=none;" vertex="1" parent="4">
                    <mxGeometry x="15" y="90" width="50" height="30" as="geometry"/>
                </mxCell>
                <mxCell id="22" value="solicitar_prestamo ()&lt;div&gt;devolver_libro()&lt;/div&gt;&lt;div&gt;libros_prestados()&lt;/div&gt;&lt;div&gt;historial()&lt;/div&gt;" style="rounded=0;whiteSpace=wrap;html=1;" vertex="1" parent="1">
                    <mxGeometry x="50" y="230" width="200" height="60" as="geometry"/>
                </mxCell>
                <mxCell id="23" value="disponible_para_prestamo()&lt;div&gt;prestar()&lt;/div&gt;&lt;div&gt;devolver()&lt;/div&gt;&lt;div&gt;informacion()&lt;/div&gt;" style="rounded=0;whiteSpace=wrap;html=1;" vertex="1" parent="1">
                    <mxGeometry x="620" y="230" width="196" height="60" as="geometry"/>
                </mxCell>
                <mxCell id="24" value="prestar()&lt;div&gt;vencimiento()&lt;div&gt;dias_retraso()&lt;/div&gt;&lt;div&gt;aplicar_multa()&lt;/div&gt;&lt;/div&gt;" style="rounded=0;whiteSpace=wrap;html=1;" vertex="1" parent="1">
                    <mxGeometry x="350" y="230" width="200" height="60" as="geometry"/>
                </mxCell>
                <mxCell id="25" value="" style="endArrow=none;html=1;" edge="1" parent="1">
                    <mxGeometry width="50" height="50" relative="1" as="geometry">
                        <mxPoint x="250" y="140" as="sourcePoint"/>
                        <mxPoint x="350" y="140" as="targetPoint"/>
                    </mxGeometry>
                </mxCell>
                <mxCell id="28" value="" style="endArrow=none;html=1;" edge="1" parent="1">
                    <mxGeometry width="50" height="50" relative="1" as="geometry">
                        <mxPoint x="550" y="140" as="sourcePoint"/>
                        <mxPoint x="590" y="140" as="targetPoint"/>
                    </mxGeometry>
                </mxCell>
                <mxCell id="29" value="" style="rhombus;whiteSpace=wrap;html=1;fillColor=#000000;" vertex="1" parent="1">
                    <mxGeometry x="590" y="130" width="30" height="20" as="geometry"/>
                </mxCell>
            </root>
        </mxGraphModel>
    </diagram>
</mxfile>